<svg width="543" height="87" viewBox="0 0 543 87" fill="none" xmlns="http://www.w3.org/2000/svg">
<path d="M57.594 41.0317V40.3585C64.9775 38.0077 68.664 30.7417 68.664 23.3581C68.664 3.91083 51.9949 0 35.6677 0H0V84.318H41.7156C56.472 84.318 72.5855 78.3876 72.5855 61.056C72.5855 50.9904 66.7727 44.28 57.6047 41.0424L57.594 41.0317ZM26.9484 18.8917H32.259C35.4753 18.8917 42.175 18.8917 42.175 26.1684C42.175 33.8939 34.4923 33.8939 31.2119 33.8939H26.9591V18.8917H26.9484ZM31.8744 65.6507H26.9484V48.7572H31.885C36.3515 48.7572 45.6371 48.7572 45.6371 57.1452C45.6371 65.5332 36.6828 65.6507 31.8744 65.6507Z" fill="#19975D"></path>
<path d="M151.031 0C125.418 0 104.4 17.2248 104.4 43.7244C104.4 70.224 125.311 87 151.031 87C176.75 87 197.662 70.7797 197.662 43.7244C197.662 16.6691 176.644 0 151.031 0ZM151.031 61.8467C140.89 61.8467 133.806 54.5807 133.806 44.1732C133.806 33.7657 141.051 26.2752 151.031 26.2752C161.011 26.2752 168.256 33.7977 168.256 44.1732C168.256 54.5486 161.171 61.8467 151.031 61.8467Z" fill="#19975D"></path>
<path d="M387.559 51.9735H411.152V32.1094H387.559V23.0269H413.396V0H356.7V84.318H414.283V61.2804H387.559V51.9735Z" fill="#19975D"></path>
<path d="M511.983 0V42.8482L486.156 0H456.75V84.3073H486.039L486.049 41.6407L511.983 84.3073H541.282V0H511.983Z" fill="#19975D"></path>
<path d="M270.451 0.0106853H239.25V84.318H278.059C302.774 84.318 320.437 68.4396 320.437 43.3932C320.437 12.4164 298.746 0 270.451 0V0.0106853ZM271.798 60.5111H268.432V24.9396H271.798C284.534 24.9396 291.266 31.2867 291.266 43.2863C291.266 54.0678 283.99 60.5111 271.798 60.5111V60.5111Z" fill="#19975D"></path>
</svg>
